HIERARCHY
ROOT mixamorig:Hips
{
	OFFSET 0.000000 97.439201 0.000000
	CHANNELS 6 Xposition Yposition Zposition Zrotation Yrotation Xrotation 
	JOINT mixamorig:Spine
	{
		OFFSET 0.000000 10.246803 -1.182900
		CHANNELS 3 Zrotation Yrotation Xrotation
		JOINT mixamorig:Spine1
		{
			OFFSET 0.000000 11.954597 -1.380086
			CHANNELS 3 Zrotation Yrotation Xrotation
			JOINT mixamorig:Spine2
			{
				OFFSET 0.000000 13.662361 -1.577237
				CHANNELS 3 Zrotation Yrotation Xrotation
				JOINT mixamorig:Neck
				{
					OFFSET 0.000000 15.370239 -1.774399
					CHANNELS 3 Zrotation Yrotation Xrotation
					JOINT mixamorig:Head
					{
						OFFSET 0.000000 6.121704 2.117600
						CHANNELS 3 Zrotation Yrotation Xrotation
						JOINT mixamorig:HeadTop_End
						{
							OFFSET 0.000000 23.480103 8.122100
							CHANNELS 3 Zrotation Yrotation Xrotation
							End Site
							{
								OFFSET 0.000000 0.000000 0.000000
							}
						}
					}
				}
				JOINT mixamorig:LeftShoulder
				{
					OFFSET 6.584100 13.564301 -1.766640
					CHANNELS 3 Zrotation Yrotation Xrotation
					JOINT mixamorig:LeftArm
					{
						OFFSET 13.322093 -3.531372 0.015528
						CHANNELS 3 Zrotation Yrotation Xrotation
						JOINT mixamorig:LeftForeArm
						{
							OFFSET 25.861839 0.000000 0.000001
							CHANNELS 3 Zrotation Yrotation Xrotation
							JOINT mixamorig:LeftHand
							{
								OFFSET 24.066311 0.000000 0.000001
								CHANNELS 3 Zrotation Yrotation Xrotation
								JOINT mixamorig:LeftHandThumb1
								{
									OFFSET 3.138794 -1.265854 2.647181
									CHANNELS 3 Zrotation Yrotation Xrotation
									JOINT mixamorig:LeftHandThumb2
									{
										OFFSET 2.662651 -1.537277 1.537284
										CHANNELS 3 Zrotation Yrotation Xrotation
										JOINT mixamorig:LeftHandThumb3
										{
											OFFSET 2.570145 -1.483871 1.483872
											CHANNELS 3 Zrotation Yrotation Xrotation
											JOINT mixamorig:LeftHandThumb4
											{
												OFFSET 2.200981 -1.270737 1.270736
												CHANNELS 3 Zrotation Yrotation Xrotation
												End Site
												{
													OFFSET 0.000000 0.000000 0.000000
												}
											}
										}
									}
								}
								JOINT mixamorig:LeftHandIndex1
								{
									OFFSET 10.405411 -0.300232 2.648106
									CHANNELS 3 Zrotation Yrotation Xrotation
									JOINT mixamorig:LeftHandIndex2
									{
										OFFSET 3.184044 0.000000 0.000000
										CHANNELS 3 Zrotation Yrotation Xrotation
										JOINT mixamorig:LeftHandIndex3
										{
											OFFSET 2.887520 0.000000 0.000000
											CHANNELS 3 Zrotation Yrotation Xrotation
											JOINT mixamorig:LeftHandIndex4
											{
												OFFSET 2.475807 0.000000 0.000000
												CHANNELS 3 Zrotation Yrotation Xrotation
												End Site
												{
													OFFSET 0.000000 0.000000 0.000000
												}
											}
										}
									}
								}
								JOINT mixamorig:LeftHandMiddle1
								{
									OFFSET 10.112617 0.000000 0.000000
									CHANNELS 3 Zrotation Yrotation Xrotation
									JOINT mixamorig:LeftHandMiddle2
									{
										OFFSET 3.478561 0.000000 0.000000
										CHANNELS 3 Zrotation Yrotation Xrotation
										JOINT mixamorig:LeftHandMiddle3
										{
											OFFSET 3.196815 0.000000 0.000000
											CHANNELS 3 Zrotation Yrotation Xrotation
											JOINT mixamorig:LeftHandMiddle4
											{
												OFFSET 2.838127 0.000000 0.000000
												CHANNELS 3 Zrotation Yrotation Xrotation
												End Site
												{
													OFFSET 0.000000 0.000000 0.000000
												}
											}
										}
									}
								}
								JOINT mixamorig:LeftHandRing1
								{
									OFFSET 9.766037 0.002869 -2.231968
									CHANNELS 3 Zrotation Yrotation Xrotation
									JOINT mixamorig:LeftHandRing2
									{
										OFFSET 2.912598 0.000000 0.000000
										CHANNELS 3 Zrotation Yrotation Xrotation
										JOINT mixamorig:LeftHandRing3
										{
											OFFSET 2.743797 0.000000 0.000000
											CHANNELS 3 Zrotation Yrotation Xrotation
											JOINT mixamorig:LeftHandRing4
											{
												OFFSET 2.426300 0.000000 0.000000
												CHANNELS 3 Zrotation Yrotation Xrotation
												End Site
												{
													OFFSET 0.000000 0.000000 0.000000
												}
											}
										}
									}
								}
								JOINT mixamorig:LeftHandPinky1
								{
									OFFSET 8.462975 -0.296494 -4.344542
									CHANNELS 3 Zrotation Yrotation Xrotation
									JOINT mixamorig:LeftHandPinky2
									{
										OFFSET 2.761932 0.000000 0.000000
										CHANNELS 3 Zrotation Yrotation Xrotation
										JOINT mixamorig:LeftHandPinky3
										{
											OFFSET 2.226311 0.000000 0.000000
											CHANNELS 3 Zrotation Yrotation Xrotation
											JOINT mixamorig:LeftHandPinky4
											{
												OFFSET 2.001915 0.000000 0.000000
												CHANNELS 3 Zrotation Yrotation Xrotation
												End Site
												{
													OFFSET 0.000000 0.000000 0.000000
												}
											}
										}
									}
								}
							}
						}
					}
				}
				JOINT mixamorig:RightShoulder
				{
					OFFSET -6.584100 13.564331 -1.782145
					CHANNELS 3 Zrotation Yrotation Xrotation
					JOINT mixamorig:RightArm
					{
						OFFSET -13.322087 -3.531387 -0.015528
						CHANNELS 3 Zrotation Yrotation Xrotation
						JOINT mixamorig:RightForeArm
						{
							OFFSET -25.995886 0.000000 -0.000000
							CHANNELS 3 Zrotation Yrotation Xrotation
							JOINT mixamorig:RightHand
							{
								OFFSET -23.930798 0.000000 -0.000000
								CHANNELS 3 Zrotation Yrotation Xrotation
								JOINT mixamorig:RightHandThumb1
								{
									OFFSET -3.103348 -1.214722 2.665987
									CHANNELS 3 Zrotation Yrotation Xrotation
									JOINT mixamorig:RightHandThumb2
									{
										OFFSET -2.644638 -1.526886 1.526883
										CHANNELS 3 Zrotation Yrotation Xrotation
										JOINT mixamorig:RightHandThumb3
										{
											OFFSET -2.548042 -1.471115 1.471114
											CHANNELS 3 Zrotation Yrotation Xrotation
											JOINT mixamorig:RightHandThumb4
											{
												OFFSET -2.086876 -1.204865 1.204859
												CHANNELS 3 Zrotation Yrotation Xrotation
												End Site
												{
													OFFSET 0.000000 0.000000 0.000000
												}
											}
										}
									}
								}
								JOINT mixamorig:RightHandIndex1
								{
									OFFSET -9.891205 -0.413467 2.629802
									CHANNELS 3 Zrotation Yrotation Xrotation
									JOINT mixamorig:RightHandIndex2
									{
										OFFSET -3.265656 0.000000 0.000000
										CHANNELS 3 Zrotation Yrotation Xrotation
										JOINT mixamorig:RightHandIndex3
										{
											OFFSET -3.106102 0.000000 0.000000
											CHANNELS 3 Zrotation Yrotation Xrotation
											JOINT mixamorig:RightHandIndex4
											{
												OFFSET -2.514259 0.000000 0.000000
												CHANNELS 3 Zrotation Yrotation Xrotation
												End Site
												{
													OFFSET 0.000000 0.000000 0.000000
												}
											}
										}
									}
								}
								JOINT mixamorig:RightHandMiddle1
								{
									OFFSET -10.108925 0.000000 0.000000
									CHANNELS 3 Zrotation Yrotation Xrotation
									JOINT mixamorig:RightHandMiddle2
									{
										OFFSET -3.489250 0.000000 0.000000
										CHANNELS 3 Zrotation Yrotation Xrotation
										JOINT mixamorig:RightHandMiddle3
										{
											OFFSET -3.236908 0.000000 0.000000
											CHANNELS 3 Zrotation Yrotation Xrotation
											JOINT mixamorig:RightHandMiddle4
											{
												OFFSET -2.756126 0.000000 0.000000
												CHANNELS 3 Zrotation Yrotation Xrotation
												End Site
												{
													OFFSET 0.000000 0.000000 0.000000
												}
											}
										}
									}
								}
								JOINT mixamorig:RightHandRing1
								{
									OFFSET -9.832733 -0.175018 -2.119855
									CHANNELS 3 Zrotation Yrotation Xrotation
									JOINT mixamorig:RightHandRing2
									{
										OFFSET -2.832802 0.000000 0.000000
										CHANNELS 3 Zrotation Yrotation Xrotation
										JOINT mixamorig:RightHandRing3
										{
											OFFSET -2.766335 0.000000 0.000000
											CHANNELS 3 Zrotation Yrotation Xrotation
											JOINT mixamorig:RightHandRing4
											{
												OFFSET -2.344864 0.000000 0.000000
												CHANNELS 3 Zrotation Yrotation Xrotation
												End Site
												{
													OFFSET 0.000000 0.000000 0.000000
												}
											}
										}
									}
								}
								JOINT mixamorig:RightHandPinky1
								{
									OFFSET -8.564178 -0.350037 -4.300325
									CHANNELS 3 Zrotation Yrotation Xrotation
									JOINT mixamorig:RightHandPinky2
									{
										OFFSET -2.646233 0.000000 0.000000
										CHANNELS 3 Zrotation Yrotation Xrotation
										JOINT mixamorig:RightHandPinky3
										{
											OFFSET -2.261864 0.000000 0.000000
											CHANNELS 3 Zrotation Yrotation Xrotation
											JOINT mixamorig:RightHandPinky4
											{
												OFFSET -1.954506 0.000000 0.000000
												CHANNELS 3 Zrotation Yrotation Xrotation
												End Site
												{
													OFFSET 0.000000 0.000000 0.000000
												}
											}
										}
									}
								}
							}
						}
					}
				}
			}
		}
	}
	JOINT mixamorig:LeftUpLeg
	{
		OFFSET 7.983700 -5.694298 -0.735200
		CHANNELS 3 Zrotation Yrotation Xrotation
		JOINT mixamorig:LeftLeg
		{
			OFFSET 1.208505 -42.761528 -3.138802
			CHANNELS 3 Zrotation Yrotation Xrotation
			JOINT mixamorig:LeftFoot
			{
				OFFSET -1.208506 -38.163300 -2.010041
				CHANNELS 3 Zrotation Yrotation Xrotation
				JOINT mixamorig:LeftToeBase
				{
					OFFSET 1.841840 -10.410353 14.836088
					CHANNELS 3 Zrotation Yrotation Xrotation
					JOINT mixamorig:LeftToe_End
					{
						OFFSET 0.820596 -0.120798 6.988551
						CHANNELS 3 Zrotation Yrotation Xrotation
						End Site
						{
							OFFSET 0.000000 0.000000 0.000000
						}
					}
				}
			}
		}
	}
	JOINT mixamorig:RightUpLeg
	{
		OFFSET -7.983700 -5.694298 -0.831100
		CHANNELS 3 Zrotation Yrotation Xrotation
		JOINT mixamorig:RightLeg
		{
			OFFSET -1.208402 -42.761509 -2.372174
			CHANNELS 3 Zrotation Yrotation Xrotation
			JOINT mixamorig:RightFoot
			{
				OFFSET 1.208405 -38.162746 -2.730814
				CHANNELS 3 Zrotation Yrotation Xrotation
				JOINT mixamorig:RightToeBase
				{
					OFFSET -1.842189 -10.413905 14.893202
					CHANNELS 3 Zrotation Yrotation Xrotation
					JOINT mixamorig:RightToe_End
					{
						OFFSET -0.820738 -0.122444 6.961618
						CHANNELS 3 Zrotation Yrotation Xrotation
						End Site
						{
							OFFSET 0.000000 0.000000 0.000000
						}
					}
				}
			}
		}
	}
}
MOTION
Frames: 4
Frame Time: 0.016667
-96.639664 92.009476 97.012711 109.328960 -14.998426 -67.070250 -3.064440 3.854147 2.625241 -7.021362 7.281252 4.698484 -7.003695 7.332717 4.650365 -10.089960 4.630944 1.906712 -24.728016 15.502850 9.298636 -0.000000 0.000001 -0.000001 -32.701893 -0.737045 1.641635 -32.137718 19.780263 -22.355707 0.000004 -0.018110 -0.000001 -6.850396 1.706221 51.955299 0.395252 -10.637934 -3.219722 7.097326 26.180089 10.021668 14.893315 9.533305 -3.708623 -0.000005 -0.000002 0.000001 -25.343619 3.391896 -1.142040 -15.810261 1.599287 -0.222082 -16.438384 1.661078 -0.239949 -0.000001 -0.000002 0.000000 -27.543818 4.735522 -1.697646 -24.860181 2.466888 -0.543815 -25.718212 2.546221 -0.581336 0.000002 -0.000002 0.000001 -31.948002 5.624941 -2.080196 -29.028327 2.846739 -0.737094 -29.908319 2.925055 -0.781424 0.000001 -0.000002 0.000001 -26.021371 7.633625 -3.740826 -23.385304 2.329175 -0.482096 -30.215259 2.952206 -0.797165 0.000000 0.000003 0.000001 21.687339 21.553640 7.054005 81.057048 56.803036 99.047909 -0.000007 59.209127 0.000014 5.841324 23.341753 48.355936 -2.222987 24.563007 -17.489166 -14.474595 -38.676363 16.389479 -14.676863 -0.597943 -6.857313 0.000001 0.000004 0.000003 12.679644 -4.758421 -0.566168 13.535943 -1.092315 -0.129631 13.534024 -1.092162 -0.129607 0.000001 -0.000003 0.000001 26.718653 -5.498274 -1.478996 27.977484 -2.188544 -0.545274 30.002176 -2.332596 -0.625143 -0.000002 -0.000001 0.000002 35.682147 -6.780959 -2.163359 33.814644 -2.595702 -0.789121 35.835291 -2.730527 -0.883016 0.000000 0.000000 0.000000 45.199692 -7.642150 -3.498701 41.014104 -3.060107 -1.144792 40.872374 -3.051377 -1.137208 0.000001 0.000000 -0.000001 41.803874 34.841885 -22.306531 -0.161039 -7.905859 23.315042 9.524221 22.383364 43.909190 -0.000064 0.000022 7.564183 0.000000 0.000000 0.000001 -29.294272 -47.044638 -76.754834 -0.428992 5.994123 43.673884 -2.376390 -19.630206 -24.103337 -0.000007 -0.000019 -2.201427 0.000000 0.000005 0.000000 
-97.270119 92.014671 97.557777 110.272082 -14.626503 -68.078632 -2.933671 3.784071 2.929333 -6.806379 7.361726 5.299908 -6.787756 7.416785 5.252901 -10.190865 4.617962 2.396934 -24.550571 15.274289 9.606944 0.000000 0.000003 0.000002 -31.354498 -0.747744 1.589645 -35.589845 21.930306 -22.699710 0.000017 -0.000015 0.000004 -10.705482 5.842021 50.677870 -0.676925 -11.456512 -2.407808 8.065237 28.671478 10.865663 15.279738 11.041225 -3.015135 -0.000003 -0.000003 -0.000002 -29.404700 3.457889 -1.418656 -18.774727 1.889051 -0.312309 -19.464472 1.955736 -0.335462 0.000001 0.000002 0.000000 -32.186394 5.091385 -2.101678 -29.604103 2.898056 -0.765951 -30.552010 2.981913 -0.814581 0.000002 0.000000 0.000000 -37.471891 6.163601 -2.591040 -34.575220 3.328247 -1.036102 -35.545845 3.409382 -1.093148 0.000000 0.000002 0.000000 -30.517615 8.606806 -4.552059 -27.930920 2.748147 -0.683550 -35.950356 3.442897 -1.117327 0.000000 0.000000 0.000001 22.109951 21.354062 7.100482 77.651927 53.646121 94.927150 0.000010 58.889830 0.000023 3.728728 25.723220 46.082254 -2.177528 25.047382 -17.728648 -14.903610 -39.353823 16.792199 -14.690688 -0.416400 -6.944578 0.000001 -0.000006 -0.000003 12.967482 -4.818545 -0.582521 13.921923 -1.122838 -0.137089 13.917057 -1.122474 -0.137009 -0.000001 0.000003 0.000001 27.434562 -5.574577 -1.531062 28.798372 -2.247283 -0.577041 30.872390 -2.393624 -0.661032 0.000000 -0.000002 0.000000 36.661841 -6.873614 -2.242236 34.810950 -2.662604 -0.834820 36.883858 -2.799159 -0.933596 0.000002 0.000001 -0.000003 46.445906 -7.737207 -3.616953 42.226302 -3.133696 -1.210264 42.078573 -3.124778 -1.202221 0.000001 -0.000000 0.000002 42.553990 34.630009 -22.645150 -0.546565 -5.664469 32.706777 3.441789 25.918038 39.248822 -0.000073 0.000016 7.415457 0.000003 0.000001 -0.000003 -30.260303 -46.913347 -76.485751 -0.205113 6.205760 43.968198 -1.885145 -19.145988 -24.328676 0.000000 -0.000006 -2.154195 0.000000 -0.000001 0.000000 
-97.881844 92.052887 98.131233 111.272509 -14.294145 -69.304008 -2.718124 3.649290 3.274353 -6.542447 7.362910 6.000823 -6.525902 7.421849 5.951163 -10.493518 4.696329 2.872637 -24.319973 15.125117 10.019426 0.000000 0.000001 0.000000 -30.262382 -0.660388 1.513200 -38.502770 23.985328 -23.221763 -0.000005 0.000004 -0.000006 -14.224541 9.615908 47.828691 -1.744741 -12.177972 -1.643243 9.035617 30.997444 11.724220 15.655265 12.429805 -2.360434 -0.000002 0.000001 -0.000000 -33.201311 3.497292 -1.695373 -21.581791 2.158688 -0.411473 -22.285597 2.225486 -0.438418 0.000001 0.000001 0.000001 -36.560803 5.413362 -2.504797 -34.096249 3.287845 -1.008449 -35.088249 3.371262 -1.066089 -0.000001 -0.000004 0.000001 -42.699341 6.661829 -3.102188 -39.820228 3.754616 -1.360327 -40.828415 3.833011 -1.427032 -0.000000 -0.000001 0.000002 -34.812973 9.547907 -5.377460 -32.233864 3.128610 -0.904221 -41.349170 3.873051 -1.462020 0.000002 -0.000003 -0.000000 22.380342 21.384012 7.169481 73.630366 51.650642 90.337553 0.000002 57.805838 0.000019 2.516728 27.746192 44.004014 -2.160075 25.347361 -17.850221 -15.177900 -39.781026 17.050842 -14.697214 -0.297080 -7.001383 -0.000000 -0.000001 0.000004 13.143764 -4.853691 -0.592584 14.163470 -1.141916 -0.141882 14.154776 -1.141232 -0.141695 0.000003 -0.000004 -0.000000 27.897158 -5.621844 -1.564989 29.328016 -2.284964 -0.597980 31.426889 -2.432194 -0.684367 -0.000001 0.000002 -0.000000 37.293464 -6.923905 -2.293465 35.456342 -2.705514 -0.865038 37.558094 -2.842773 -0.966767 -0.000002 0.000002 -0.000001 47.238671 -7.783791 -3.688895 43.013731 -3.180754 -1.253646 42.860947 -3.171666 -1.245178 0.000002 0.000004 -0.000002 43.001604 34.117011 -22.386429 -0.609201 -3.672404 41.372234 -1.189117 27.747678 35.632923 -0.000086 0.000015 6.241295 0.000002 -0.000002 -0.000000 -31.259084 -46.674100 -76.071190 0.113851 6.512427 44.157447 -1.442369 -18.702579 -24.456580 0.000002 -0.000013 -2.122275 0.000000 0.000001 0.000000 
-98.470161 92.122337 98.744522 112.302464 -13.990367 -70.675531 -2.450971 3.454089 3.599422 -6.241084 7.247854 6.673015 -6.227819 7.310296 6.620083 -10.876341 4.814278 3.383957 -24.038286 14.975324 10.484548 0.000002 -0.000000 0.000001 -29.416923 -0.461112 1.408531 -40.734635 25.846005 -23.877411 0.000006 -0.001855 -0.000012 -16.937246 13.339158 44.798986 -2.765326 -12.759110 -0.986171 9.952670 33.049509 12.545537 15.995072 13.625370 -1.783404 -0.000005 -0.000004 0.000008 -36.548570 3.513287 -1.952625 -24.101386 2.396256 -0.511630 -24.759091 2.457485 -0.539462 0.000000 0.000000 0.000000 -40.452053 5.695120 -2.879710 -38.123444 3.619983 -1.251171 -39.100948 3.697939 -1.313574 0.000000 -0.000001 0.000000 -47.377853 7.111019 -3.578992 -44.510649 4.109093 -1.682116 -45.487951 4.179535 -1.752768 0.000000 0.000000 0.000003 -38.706446 10.428485 -6.181667 -36.083442 3.453896 -1.125332 -46.144734 4.226196 -1.800881 -0.000000 0.000003 -0.000001 22.808999 21.579530 7.326253 68.768107 50.550223 85.775598 0.000017 56.378349 0.000029 1.621913 29.478743 42.058422 -2.165309 25.509586 -17.879153 -15.332804 -40.024229 17.197860 -14.697818 -0.222890 -7.035787 0.000004 -0.000003 -0.000000 13.236408 -4.869893 -0.597900 14.297751 -1.152534 -0.144557 14.284115 -1.151454 -0.144275 -0.000001 -0.000001 0.000000 28.174200 -5.647854 -1.585373 29.644312 -2.307340 -0.610661 31.748608 -2.454480 -0.698082 -0.000001 -0.000001 0.000000 37.669771 -6.941947 -2.324141 35.845113 -2.731175 -0.883483 37.957520 -2.868457 -0.986672 -0.000002 0.000001 0.000002 47.696773 -7.793266 -3.725643 43.490891 -3.208956 -1.280230 43.333459 -3.199680 -1.271444 0.000000 0.000000 0.000000 42.894869 33.429776 -21.916958 -0.450916 -1.834997 49.955063 -2.628445 27.890543 33.431096 -0.000029 -0.000005 4.658074 -0.000003 -0.000003 0.000001 -32.253342 -46.365985 -75.572622 0.453877 6.843201 44.236017 -1.026911 -18.249608 -24.491624 0.000002 -0.000019 -2.093676 0.000000 0.000002 0.000000 
